# Blender v2.92.0 Beta OBJ File: ''
# www.blender.org
mtllib QS.mtl
o Цилиндр.001_Цилиндр.010
v 0.022950 0.923685 -0.051546
v -0.000000 0.923685 -0.056425
v 0.041932 0.923685 -0.037755
v 0.053663 0.923685 -0.017436
v 0.056115 0.923685 0.005898
v 0.048865 0.923685 0.028212
v 0.033165 0.923685 0.045648
v 0.011731 0.923685 0.055191
v -0.011731 0.923685 0.055191
v -0.033166 0.923685 0.045648
v -0.048865 0.923685 0.028212
v -0.056115 0.923685 0.005898
v -0.053663 0.923685 -0.017436
v -0.041932 0.923685 -0.037755
v -0.022950 0.923685 -0.051546
v 0.022950 1.024479 -0.051546
v 0.000000 1.024479 -0.056425
v 0.041932 1.024479 -0.037756
v 0.053663 1.024479 -0.017436
v 0.056115 1.024479 0.005898
v 0.048865 1.024479 0.028212
v 0.033166 1.024479 0.045648
v 0.011731 1.024479 0.055191
v -0.011731 1.024479 0.055191
v -0.033165 1.024479 0.045648
v -0.048865 1.024479 0.028212
v -0.056115 1.024479 0.005898
v -0.053663 1.024479 -0.017436
v -0.041932 1.024479 -0.037756
v -0.022950 1.024479 -0.051546
v 0.016166 1.022157 -0.036309
v 0.000000 1.022157 -0.039746
v 0.029537 1.022157 -0.026595
v 0.037800 1.022157 -0.012282
v 0.039528 1.022157 0.004154
v 0.034421 1.022157 0.019873
v 0.023362 1.022157 0.032155
v 0.008264 1.022157 0.038877
v -0.008264 1.022157 0.038877
v -0.023362 1.022157 0.032155
v -0.034421 1.022157 0.019873
v -0.039528 1.022157 0.004154
v -0.037800 1.022157 -0.012282
v -0.029537 1.022157 -0.026595
v -0.016166 1.022157 -0.036309
v 0.016166 0.954314 -0.036309
v 0.000000 0.954314 -0.039746
v 0.029537 0.954314 -0.026595
v 0.037800 0.954314 -0.012282
v 0.039528 0.954314 0.004154
v 0.034421 0.954314 0.019873
v 0.023362 0.954314 0.032155
v 0.008264 0.954314 0.038877
v -0.008263 0.954314 0.038877
v -0.023362 0.954314 0.032155
v -0.034420 0.954314 0.019873
v -0.039528 0.954314 0.004154
v -0.037800 0.954314 -0.012282
v -0.029537 0.954314 -0.026595
v -0.016166 0.954314 -0.036309
v 0.000000 -0.213244 -0.430195
v 0.000000 0.749747 -0.430195
v 0.174976 -0.213244 -0.393003
v 0.174976 0.749747 -0.393003
v 0.319697 -0.213244 -0.287857
v 0.319697 0.749747 -0.287857
v 0.409140 -0.213244 -0.132938
v 0.409140 0.749747 -0.132938
v 0.427839 -0.213244 0.044968
v 0.427839 0.749747 0.044968
v 0.372560 -0.213244 0.215098
v 0.372560 0.749747 0.215098
v 0.252862 -0.213244 0.348035
v 0.252862 0.749747 0.348035
v 0.089443 -0.213244 0.420795
v 0.089443 0.749747 0.420794
v -0.089443 -0.213244 0.420795
v -0.089443 0.749747 0.420794
v -0.252863 -0.213244 0.348035
v -0.252863 0.749747 0.348035
v -0.372560 -0.213244 0.215098
v -0.372560 0.749747 0.215098
v -0.427839 -0.213244 0.044968
v -0.427839 0.749747 0.044968
v -0.409140 -0.213244 -0.132938
v -0.409140 0.749747 -0.132938
v -0.319697 -0.213244 -0.287857
v -0.319697 0.749747 -0.287857
v -0.174976 -0.213244 -0.393003
v -0.174976 0.749747 -0.393003
v -0.000000 -0.278434 -0.392601
v 0.159685 -0.278434 -0.358659
v 0.291759 -0.278434 -0.262701
v 0.373386 -0.278434 -0.121320
v 0.390450 -0.278434 0.041038
v 0.340002 -0.278433 0.196301
v 0.230765 -0.278433 0.317621
v 0.081626 -0.278433 0.384022
v -0.081626 -0.278433 0.384022
v -0.230765 -0.278433 0.317621
v -0.340002 -0.278433 0.196301
v -0.390450 -0.278434 0.041038
v -0.373386 -0.278434 -0.121320
v -0.291759 -0.278434 -0.262701
v -0.159685 -0.278434 -0.358659
v -0.000000 -0.373229 -0.392601
v 0.159685 -0.373229 -0.358659
v 0.291759 -0.373229 -0.262701
v 0.373386 -0.373228 -0.121320
v 0.390450 -0.373228 0.041038
v 0.340002 -0.373228 0.196301
v 0.230765 -0.373228 0.317621
v 0.081626 -0.373228 0.384022
v -0.081626 -0.373228 0.384022
v -0.230765 -0.373228 0.317621
v -0.340002 -0.373228 0.196301
v -0.390450 -0.373228 0.041038
v -0.373386 -0.373228 -0.121320
v -0.291759 -0.373229 -0.262701
v -0.159685 -0.373229 -0.358659
v 0.154223 0.874556 -0.346391
v -0.000000 0.874556 -0.379172
v 0.281780 0.874556 -0.253716
v 0.360614 0.874556 -0.117171
v 0.377095 0.874556 0.039634
v 0.328373 0.874556 0.189586
v 0.222872 0.874556 0.306757
v 0.078834 0.874556 0.370886
v -0.078834 0.874556 0.370886
v -0.222872 0.874556 0.306757
v -0.328373 0.874556 0.189586
v -0.377095 0.874556 0.039634
v -0.360614 0.874556 -0.117171
v -0.281780 0.874556 -0.253716
v -0.154223 0.874556 -0.346391
v 0.125996 0.923685 -0.282992
v -0.000000 0.923685 -0.309773
v 0.230206 0.923685 -0.207279
v 0.294612 0.923685 -0.095725
v 0.308076 0.923685 0.032380
v 0.268271 0.923685 0.154886
v 0.182080 0.923685 0.250612
v 0.064405 0.923685 0.303004
v -0.064405 0.923685 0.303004
v -0.182080 0.923685 0.250611
v -0.268271 0.923685 0.154886
v -0.308076 0.923685 0.032380
v -0.294612 0.923685 -0.095725
v -0.230206 0.923685 -0.207279
v -0.125996 0.923685 -0.282992
v 0.112361 0.923685 -0.252367
v -0.000000 0.923685 -0.276250
v 0.205294 0.923685 -0.184847
v 0.262729 0.923685 -0.085366
v 0.274736 0.923685 0.028876
v 0.239239 0.923685 0.138125
v 0.162376 0.923685 0.223491
v 0.057436 0.923685 0.270213
v -0.057436 0.923685 0.270213
v -0.162376 0.923685 0.223491
v -0.239239 0.923685 0.138125
v -0.274736 0.923685 0.028876
v -0.262729 0.923685 -0.085366
v -0.205294 0.923685 -0.184847
v -0.112361 0.923685 -0.252367
v 0.308076 1.134475 0.032380
v 0.294612 1.134475 -0.095725
v 0.268271 1.134475 0.154886
v 0.182080 1.134475 0.250611
v 0.064405 1.134475 0.303004
v -0.064405 1.134475 0.303004
v -0.182080 1.134475 0.250611
v -0.268271 1.134475 0.154886
v -0.308076 1.134475 0.032380
v -0.294612 1.134475 -0.095725
v 0.274736 1.134475 0.028876
v 0.262729 1.134475 -0.085366
v 0.239239 1.134475 0.138125
v 0.162376 1.134475 0.223491
v 0.057436 1.134475 0.270213
v -0.057436 1.134475 0.270213
v -0.162376 1.134475 0.223491
v -0.239239 1.134475 0.138125
v -0.274736 1.134475 0.028876
v -0.262729 1.134475 -0.085366
v 0.022950 0.923685 -0.051546
v -0.000000 0.923685 -0.056425
v 0.041932 0.923685 -0.037755
v 0.053663 0.923685 -0.017436
v 0.056115 0.923685 0.005898
v 0.048865 0.923685 0.028212
v 0.033165 0.923685 0.045648
v 0.011731 0.923685 0.055191
v -0.011731 0.923685 0.055191
v -0.033166 0.923685 0.045648
v -0.048865 0.923685 0.028212
v -0.056115 0.923685 0.005898
v -0.053663 0.923685 -0.017436
v -0.041932 0.923685 -0.037755
v -0.022950 0.923685 -0.051546
vt 0.021746 0.324164
vt 0.011315 0.224913
vt 0.011315 0.224913
vt 0.021746 0.324164
vt 0.011315 0.224913
vt 0.021746 0.324164
vt 0.457846 0.130000
vt 0.488685 0.224913
vt 0.488685 0.224913
vt 0.457846 0.130000
vt 0.133333 1.000000
vt 0.200000 1.000000
vt 0.200000 1.000000
vt 0.133333 1.000000
vt 0.391068 0.055836
vt 0.391068 0.055836
vt 0.066667 1.000000
vt 0.066667 1.000000
vt 0.299899 0.015245
vt 0.299899 0.015245
vt 0.000000 1.000000
vt 0.000000 1.000000
vt 0.200101 0.015245
vt 0.200101 0.015245
vt 0.933333 1.000000
vt 1.000000 1.000000
vt 1.000000 1.000000
vt 0.933333 1.000000
vt 0.108932 0.055836
vt 0.108932 0.055836
vt 0.866667 1.000000
vt 0.866667 1.000000
vt 0.042154 0.130000
vt 0.042154 0.130000
vt 0.800000 1.000000
vt 0.800000 1.000000
vt 0.478254 0.324164
vt 0.478254 0.324164
vt 0.488685 0.224913
vt 0.478254 0.324164
vt 0.478254 0.324164
vt 0.488685 0.224913
vt 0.457846 0.130000
vt 0.200000 1.000000
vt 0.133333 1.000000
vt 0.391068 0.055836
vt 0.066667 1.000000
vt 0.299899 0.015245
vt 0.000000 1.000000
vt 0.200101 0.015245
vt 1.000000 1.000000
vt 0.933333 1.000000
vt 0.108932 0.055836
vt 0.866667 1.000000
vt 0.042154 0.130000
vt 0.800000 1.000000
vt 0.347617 0.469251
vt 0.250000 0.490000
vt 0.152383 0.469251
vt 0.071645 0.410591
vt 0.021746 0.324164
vt 0.011315 0.224913
vt 0.042154 0.130000
vt 0.108932 0.055836
vt 0.200101 0.015245
vt 0.299899 0.015245
vt 0.391068 0.055836
vt 0.457846 0.130000
vt 0.428355 0.410591
vt 0.200000 1.000000
vt 0.133333 1.000000
vt 0.066667 1.000000
vt 0.000000 1.000000
vt 1.000000 1.000000
vt 0.933333 1.000000
vt 0.866667 1.000000
vt 0.800000 1.000000
vt 1.000000 0.500000
vt 1.000000 1.000000
vt 0.933333 1.000000
vt 0.933333 0.500000
vt 0.866667 1.000000
vt 0.866667 0.500000
vt 0.800000 1.000000
vt 0.800000 0.500000
vt 0.733333 1.000000
vt 0.733333 0.500000
vt 0.666667 1.000000
vt 0.666667 0.500000
vt 0.600000 1.000000
vt 0.600000 0.500000
vt 0.533333 1.000000
vt 0.533333 0.500000
vt 0.466667 1.000000
vt 0.466667 0.500000
vt 0.400000 1.000000
vt 0.400000 0.500000
vt 0.333333 1.000000
vt 0.333333 0.500000
vt 0.266667 1.000000
vt 0.266667 0.500000
vt 0.200000 1.000000
vt 0.200000 0.500000
vt 0.133333 1.000000
vt 0.133333 0.500000
vt 0.666667 1.000000
vt 0.600000 1.000000
vt 0.066667 1.000000
vt 0.066667 0.500000
vt 0.000000 1.000000
vt 0.000000 0.500000
vt 0.733333 0.500000
vt 0.800000 0.500000
vt 0.400000 0.500000
vt 0.333333 0.500000
vt 0.333333 0.500000
vt 0.400000 0.500000
vt 0.466667 0.500000
vt 0.066667 0.500000
vt 0.133333 0.500000
vt 0.866667 0.500000
vt 0.933333 0.500000
vt 0.533333 0.500000
vt 0.600000 0.500000
vt 0.200000 0.500000
vt 0.266667 0.500000
vt 0.666667 0.500000
vt 0.000000 0.500000
vt 1.000000 0.500000
vt 0.750000 0.490000
vt 0.847617 0.469251
vt 0.928355 0.410591
vt 0.978254 0.324164
vt 0.988685 0.224913
vt 0.957846 0.130000
vt 0.891068 0.055836
vt 0.799899 0.015245
vt 0.700101 0.015245
vt 0.608932 0.055836
vt 0.542154 0.130000
vt 0.511315 0.224913
vt 0.521746 0.324164
vt 0.571645 0.410591
vt 0.652383 0.469251
vt 0.800000 0.500000
vt 0.866667 0.500000
vt 0.266667 0.500000
vt 0.733333 0.500000
vt 0.200000 0.500000
vt 0.666667 0.500000
vt 0.133333 0.500000
vt 0.600000 0.500000
vt 0.066667 0.500000
vt 0.533333 0.500000
vt 0.000000 0.500000
vt 0.466667 0.500000
vt 0.933333 0.500000
vt 1.000000 0.500000
vt 0.400000 1.000000
vt 0.466667 1.000000
vt 0.466667 1.000000
vt 0.400000 1.000000
vt 0.333333 1.000000
vt 0.266667 1.000000
vt 0.800000 1.000000
vt 0.733333 1.000000
vt 0.133333 1.000000
vt 0.066667 1.000000
vt 0.933333 1.000000
vt 0.866667 1.000000
vt 0.533333 1.000000
vt 0.200000 1.000000
vt 0.000000 1.000000
vt 1.000000 1.000000
vt 0.933333 1.000000
vt 1.000000 1.000000
vt 1.000000 1.000000
vt 0.933333 1.000000
vt 0.866667 1.000000
vt 0.333333 1.000000
vt 0.800000 1.000000
vt 0.266667 1.000000
vt 0.733333 1.000000
vt 0.200000 1.000000
vt 0.666667 1.000000
vt 0.133333 1.000000
vt 0.600000 1.000000
vt 0.066667 1.000000
vt 0.533333 1.000000
vt 0.000000 1.000000
vt 0.200101 0.015245
vt 0.299899 0.015245
vt 0.299899 0.015245
vt 0.200101 0.015245
vt 0.800000 1.000000
vt 0.733333 1.000000
vt 0.866667 1.000000
vt 0.042154 0.130000
vt 0.011315 0.224913
vt 0.011315 0.224913
vt 0.042154 0.130000
vt 0.800000 1.000000
vt 0.333333 1.000000
vt 0.266667 1.000000
vt 0.200000 1.000000
vt 0.200000 1.000000
vt 0.200000 1.000000
vt 0.108932 0.055836
vt 0.108932 0.055836
vt 0.400000 1.000000
vt 0.133333 1.000000
vt 0.200101 0.015245
vt 0.066667 1.000000
vt 0.466667 1.000000
vt 0.000000 1.000000
vt 0.299899 0.015245
vt 0.466667 1.000000
vt 0.400000 1.000000
vt 0.333333 1.000000
vt 0.266667 1.000000
vt 0.800000 1.000000
vt 0.733333 1.000000
vt 0.666667 1.000000
vt 0.666667 1.000000
vt 0.600000 1.000000
vt 0.600000 1.000000
vt 0.533333 1.000000
vt 0.533333 1.000000
vt 0.478254 0.324164
vt 0.488685 0.224913
vt 0.488685 0.224913
vt 0.478254 0.324164
vt 0.021746 0.324164
vt 0.021746 0.324164
vt 0.457846 0.130000
vt 0.457846 0.130000
vt 0.391068 0.055836
vt 0.391068 0.055836
vt 1.000000 1.000000
vt 0.933333 1.000000
vt 0.108932 0.055836
vt 0.866667 1.000000
vt 0.042154 0.130000
vt 0.800000 1.000000
vt 0.011315 0.224913
vt 0.478254 0.324164
vt 0.488685 0.224913
vt 0.021746 0.324164
vt 0.457846 0.130000
vt 0.200000 1.000000
vt 0.133333 1.000000
vt 0.391068 0.055836
vt 0.066667 1.000000
vt 0.000000 1.000000
vn -0.9945 0.0000 -0.1045
vn 0.1401 0.9900 0.0147
vn 0.9511 -0.0000 0.3090
vn -0.8660 0.0000 -0.5000
vn 0.7431 -0.0000 0.6691
vn -0.5878 -0.0000 -0.8090
vn 0.4067 0.0000 0.9135
vn -0.2079 -0.0000 -0.9781
vn 0.0000 0.0000 1.0000
vn 0.2079 -0.0000 -0.9781
vn -0.4067 0.0000 0.9135
vn 0.5878 -0.0000 -0.8090
vn -0.7431 0.0000 0.6691
vn 0.8660 -0.0000 -0.5000
vn -0.9511 0.0000 0.3090
vn 0.9945 -0.0000 -0.1045
vn -0.9945 -0.0000 0.1045
vn -0.1340 0.9900 -0.0435
vn 0.1220 0.9900 0.0704
vn -0.1047 0.9900 -0.0943
vn 0.0828 0.9900 0.1140
vn -0.0573 0.9900 -0.1287
vn 0.0293 0.9900 0.1378
vn 0.0000 0.9900 -0.1409
vn -0.0293 0.9900 0.1378
vn 0.0573 0.9900 -0.1287
vn -0.0828 0.9900 0.1140
vn 0.1047 0.9900 -0.0943
vn -0.1220 0.9900 0.0704
vn 0.1340 0.9900 -0.0435
vn -0.1401 0.9900 0.0147
vn 0.0000 1.0000 -0.0000
vn 0.9945 0.0000 0.1045
vn -0.9511 -0.0000 -0.3090
vn 0.8660 0.0000 0.5000
vn -0.7431 -0.0000 -0.6691
vn 0.5878 0.0000 0.8090
vn -0.4067 -0.0000 -0.9135
vn 0.2079 0.0000 0.9781
vn 0.0000 -0.0000 -1.0000
vn -0.2079 0.0000 0.9781
vn 0.4067 0.0000 -0.9135
vn -0.5878 -0.0000 0.8090
vn 0.7431 0.0000 -0.6691
vn -0.8660 -0.0000 0.5000
vn 0.9511 0.0000 -0.3090
vn 0.6900 0.3713 0.6213
vn 0.8662 -0.4913 -0.0910
vn -0.3543 -0.4913 0.7957
vn -0.5120 -0.4913 -0.7046
vn 0.5120 -0.4913 -0.7046
vn 0.3543 -0.4913 0.7957
vn -0.8662 -0.4913 -0.0910
vn 0.8284 -0.4913 0.2691
vn -0.6473 -0.4913 0.5828
vn -0.1811 -0.4913 -0.8520
vn 0.7543 -0.4913 -0.4355
vn 0.0000 -0.4913 0.8710
vn 0.1811 -0.4913 -0.8520
vn -0.7543 -0.4913 -0.4355
vn 0.6473 -0.4913 0.5828
vn -0.8284 -0.4913 0.2691
vn -0.0000 -1.0000 0.0000
vn -0.2385 0.8101 0.5356
vn -0.8831 0.3713 0.2869
vn 0.9234 0.3713 -0.0971
vn -0.3777 0.3713 0.8482
vn -0.5458 0.3713 -0.7512
vn 0.5458 0.3713 -0.7512
vn 0.3777 0.3713 0.8482
vn -0.9234 0.3713 -0.0971
vn 0.8831 0.3713 0.2869
vn -0.6900 0.3713 0.6213
vn -0.1930 0.3713 -0.9082
vn 0.8041 0.3713 -0.4643
vn 0.0000 0.3713 0.9285
vn 0.1930 0.3713 -0.9082
vn -0.8041 0.3713 -0.4643
vn 0.3446 0.8101 -0.4743
vn -0.4357 0.8101 0.3923
vn 0.5077 0.8101 -0.2931
vn -0.5576 0.8101 0.1812
vn 0.5831 0.8101 -0.0613
vn -0.5831 0.8101 -0.0613
vn 0.5576 0.8101 0.1812
vn -0.5077 0.8101 -0.2931
vn 0.4357 0.8101 0.3923
vn -0.3446 0.8101 -0.4743
vn 0.2385 0.8101 0.5356
vn -0.1219 0.8101 -0.5735
vn 0.0000 0.8101 0.5863
vn 0.1219 0.8101 -0.5735
vn 0.3090 -0.0000 -0.9511
vn -0.3090 -0.0000 -0.9511
usemtl None
s 1
f 13/1/1 12/2/1 27/3/1 28/4/1
f 28/4/2 27/3/2 42/5/2 43/6/2
f 6/7/3 5/8/3 20/9/3 21/10/3
f 14/11/4 13/12/4 28/13/4 29/14/4
f 7/15/5 6/7/5 21/10/5 22/16/5
f 15/17/6 14/11/6 29/14/6 30/18/6
f 8/19/7 7/15/7 22/16/7 23/20/7
f 2/21/8 15/17/8 30/18/8 17/22/8
f 9/23/9 8/19/9 23/20/9 24/24/9
f 1/25/10 2/26/10 17/27/10 16/28/10
f 10/29/11 9/23/11 24/24/11 25/30/11
f 3/31/12 1/25/12 16/28/12 18/32/12
f 11/33/13 10/29/13 25/30/13 26/34/13
f 4/35/14 3/31/14 18/32/14 19/36/14
f 12/2/15 11/33/15 26/34/15 27/3/15
f 5/8/16 4/37/16 19/38/16 20/9/16
f 35/39/17 34/40/17 49/41/17 50/42/17
f 21/10/18 20/9/18 35/39/18 36/43/18
f 29/14/19 28/13/19 43/44/19 44/45/19
f 22/16/20 21/10/20 36/43/20 37/46/20
f 30/18/21 29/14/21 44/45/21 45/47/21
f 23/20/22 22/16/22 37/46/22 38/48/22
f 17/22/23 30/18/23 45/47/23 32/49/23
f 24/24/24 23/20/24 38/48/24 39/50/24
f 16/28/25 17/27/25 32/51/25 31/52/25
f 25/30/26 24/24/26 39/50/26 40/53/26
f 18/32/27 16/28/27 31/52/27 33/54/27
f 26/34/28 25/30/28 40/53/28 41/55/28
f 19/36/29 18/32/29 33/54/29 34/56/29
f 27/3/30 26/34/30 41/55/30 42/5/30
f 20/9/31 19/38/31 34/40/31 35/39/31
f 46/57/32 47/58/32 60/59/32 59/60/32 58/61/32 57/62/32 56/63/32 55/64/32 54/65/32 53/66/32 52/67/32 51/68/32 50/42/32 49/41/32 48/69/32
f 43/6/33 42/5/33 57/62/33 58/61/33
f 36/43/34 35/39/34 50/42/34 51/68/34
f 44/45/35 43/44/35 58/70/35 59/71/35
f 37/46/36 36/43/36 51/68/36 52/67/36
f 45/47/37 44/45/37 59/71/37 60/72/37
f 38/48/38 37/46/38 52/67/38 53/66/38
f 32/49/39 45/47/39 60/72/39 47/73/39
f 39/50/40 38/48/40 53/66/40 54/65/40
f 31/52/41 32/51/41 47/74/41 46/75/41
f 40/53/42 39/50/42 54/65/42 55/64/42
f 33/54/43 31/52/43 46/75/43 48/76/43
f 41/55/44 40/53/44 55/64/44 56/63/44
f 34/56/45 33/54/45 48/76/45 49/77/45
f 42/5/46 41/55/46 56/63/46 57/62/46
f 61/78/10 62/79/10 64/80/10 63/81/10
f 63/81/12 64/80/12 66/82/12 65/83/12
f 65/83/14 66/82/14 68/84/14 67/85/14
f 67/85/16 68/84/16 70/86/16 69/87/16
f 69/87/3 70/86/3 72/88/3 71/89/3
f 71/89/5 72/88/5 74/90/5 73/91/5
f 73/91/7 74/90/7 76/92/7 75/93/7
f 75/93/9 76/92/9 78/94/9 77/95/9
f 77/95/11 78/94/11 80/96/11 79/97/11
f 79/97/13 80/96/13 82/98/13 81/99/13
f 81/99/15 82/98/15 84/100/15 83/101/15
f 83/101/1 84/100/1 86/102/1 85/103/1
f 85/103/4 86/102/4 88/104/4 87/105/4
f 74/90/47 72/88/47 126/106/47 127/107/47
f 87/105/6 88/104/6 90/108/6 89/109/6
f 89/109/8 90/108/8 62/110/8 61/111/8
f 67/85/48 69/87/48 95/112/48 94/113/48
f 100/114/13 101/115/13 116/116/13 115/117/13
f 77/95/49 79/97/49 100/114/49 99/118/49
f 87/105/50 89/109/50 105/119/50 104/120/50
f 63/81/51 65/83/51 93/121/51 92/122/51
f 73/91/52 75/93/52 98/123/52 97/124/52
f 83/101/53 85/103/53 103/125/53 102/126/53
f 69/87/54 71/89/54 96/127/54 95/112/54
f 79/97/55 81/99/55 101/115/55 100/114/55
f 89/109/56 61/111/56 91/128/56 105/119/56
f 65/83/57 67/85/57 94/113/57 93/121/57
f 75/93/58 77/95/58 99/118/58 98/123/58
f 61/78/59 63/81/59 92/122/59 91/129/59
f 85/103/60 87/105/60 104/120/60 103/125/60
f 71/89/61 73/91/61 97/124/61 96/127/61
f 81/99/62 83/101/62 102/126/62 101/115/62
f 106/130/63 107/131/63 108/132/63 109/133/63 110/134/63 111/135/63 112/136/63 113/137/63 114/138/63 115/139/63 116/140/63 117/141/63 118/142/63 119/143/63 120/144/63
f 93/121/14 94/113/14 109/145/14 108/146/14
f 101/115/15 102/126/15 117/147/15 116/116/15
f 94/113/16 95/112/16 110/148/16 109/145/16
f 102/126/1 103/125/1 118/149/1 117/147/1
f 95/112/3 96/127/3 111/150/3 110/148/3
f 103/125/4 104/120/4 119/151/4 118/149/4
f 96/127/5 97/124/5 112/152/5 111/150/5
f 104/120/6 105/119/6 120/153/6 119/151/6
f 97/124/7 98/123/7 113/154/7 112/152/7
f 105/119/8 91/128/8 106/155/8 120/153/8
f 98/123/9 99/118/9 114/156/9 113/154/9
f 91/129/10 92/122/10 107/157/10 106/158/10
f 99/118/11 100/114/11 115/117/11 114/156/11
f 92/122/12 93/121/12 108/146/12 107/157/12
f 130/159/64 129/160/64 144/161/64 145/162/64
f 84/100/65 82/98/65 131/163/65 132/164/65
f 70/86/66 68/84/66 124/165/66 125/166/66
f 80/96/67 78/94/67 129/160/67 130/159/67
f 90/108/68 88/104/68 134/167/68 135/168/68
f 66/82/69 64/80/69 121/169/69 123/170/69
f 76/92/70 74/90/70 127/107/70 128/171/70
f 86/102/71 84/100/71 132/164/71 133/172/71
f 72/88/72 70/86/72 125/166/72 126/106/72
f 82/98/73 80/96/73 130/159/73 131/163/73
f 62/110/74 90/108/74 135/168/74 122/173/74
f 68/84/75 66/82/75 123/170/75 124/165/75
f 78/94/76 76/92/76 128/171/76 129/160/76
f 64/80/77 62/79/77 122/174/77 121/169/77
f 88/104/78 86/102/78 133/172/78 134/167/78
f 136/175/32 137/176/32 152/177/32 151/178/32
f 123/170/79 121/169/79 136/175/79 138/179/79
f 131/163/80 130/159/80 145/162/80 146/180/80
f 124/165/81 123/170/81 138/179/81 139/181/81
f 132/164/82 131/163/82 146/180/82 147/182/82
f 125/166/83 124/165/83 139/181/83 140/183/83
f 133/172/84 132/164/84 147/182/84 148/184/84
f 126/106/85 125/166/85 140/183/85 141/185/85
f 134/167/86 133/172/86 148/184/86 149/186/86
f 127/107/87 126/106/87 141/185/87 142/187/87
f 135/168/88 134/167/88 149/186/88 150/188/88
f 128/171/89 127/107/89 142/187/89 143/189/89
f 122/173/90 135/168/90 150/188/90 137/190/90
f 129/160/91 128/171/91 143/189/91 144/161/91
f 121/169/92 122/174/92 137/176/92 136/175/92
f 159/191/32 158/192/32 193/193/32 194/194/32
f 140/183/16 139/181/16 167/195/16 166/196/16
f 138/179/32 136/175/32 151/178/32 153/197/32
f 161/198/46 162/199/46 184/200/46 183/201/46
f 139/181/32 138/179/32 153/197/32 154/202/32
f 147/182/15 146/180/15 173/203/15 174/204/15
f 163/205/93 148/184/93 175/206/93 185/207/93
f 160/208/44 161/198/44 183/201/44 182/209/44
f 146/180/13 145/162/13 172/210/13 173/203/13
f 149/186/32 148/184/32 163/205/32 164/211/32
f 159/191/42 160/208/42 182/209/42 181/212/42
f 150/188/32 149/186/32 164/211/32 165/213/32
f 145/162/11 144/161/11 171/214/11 172/210/11
f 137/190/32 150/188/32 165/213/32 152/215/32
f 158/192/40 159/191/40 181/212/40 180/216/40
f 172/210/32 171/214/32 181/217/32 182/218/32
f 173/203/32 172/210/32 182/218/32 183/219/32
f 174/204/32 173/203/32 183/219/32 184/220/32
f 166/196/32 167/195/32 177/221/32 176/222/32
f 175/206/32 174/204/32 184/220/32 185/207/32
f 168/223/32 166/196/32 176/222/32 178/224/32
f 169/225/32 168/223/32 178/224/32 179/226/32
f 170/227/32 169/225/32 179/226/32 180/228/32
f 171/214/32 170/227/32 180/228/32 181/217/32
f 154/229/17 155/230/17 176/231/17 177/232/17
f 148/184/1 147/182/1 174/204/1 175/206/1
f 162/199/33 163/233/33 185/234/33 184/200/33
f 141/185/3 140/183/3 166/196/3 168/223/3
f 155/230/34 156/235/34 178/236/34 176/231/34
f 142/187/5 141/185/5 168/223/5 169/225/5
f 156/235/36 157/237/36 179/238/36 178/236/36
f 143/189/7 142/187/7 169/225/7 170/227/7
f 157/237/38 158/192/38 180/216/38 179/238/38
f 139/181/94 154/202/94 177/221/94 167/195/94
f 144/161/9 143/189/9 170/227/9 171/214/9
f 151/178/32 152/177/32 187/239/32 186/240/32
f 160/208/32 159/191/32 194/194/32 195/241/32
f 153/197/32 151/178/32 186/240/32 188/242/32
f 161/198/32 160/208/32 195/241/32 196/243/32
f 154/202/32 153/197/32 188/242/32 189/244/32
f 162/199/32 161/198/32 196/243/32 197/245/32
f 155/230/32 154/229/32 189/246/32 190/247/32
f 163/233/32 162/199/32 197/245/32 198/248/32
f 156/235/32 155/230/32 190/247/32 191/249/32
f 164/211/32 163/205/32 198/250/32 199/251/32
f 157/237/32 156/235/32 191/249/32 192/252/32
f 165/213/32 164/211/32 199/251/32 200/253/32
f 158/192/32 157/237/32 192/252/32 193/193/32
f 152/215/32 165/213/32 200/253/32 187/254/32
